<?xml version="1.0" encoding="iso-8859-1"?>
<!-- Uploaded to: SVG Repo, www.svgrepo.com, Generator: SVG Repo Mixer Tools -->
<svg height="300px" width="300px" version="1.1" id="Layer_1" xmlns="http://www.w3.org/2000/svg" xmlns:xlink="http://www.w3.org/1999/xlink" 
	 viewBox="0 0 512 512" xml:space="preserve">
<path style="fill:#FF8163;" d="M427.152,149.653c-18.932-18.941-44.102-29.372-70.874-29.372c-26.777,0-51.946,10.431-70.879,29.372
	l-5.881,5.884l-5.883-5.884c-18.93-18.941-44.104-29.372-70.877-29.372c-26.77,0-51.943,10.431-70.872,29.372
	c-18.932,18.94-29.359,44.123-29.359,70.906c0,8.227,0.987,16.302,2.9,24.094c4.947-1.281,10.086-1.951,15.331-1.951
	c16.234,0,31.495,6.324,42.974,17.809l3.566,3.567l3.565-3.567c11.479-11.485,26.74-17.809,42.974-17.809
	c16.233,0,31.496,6.324,42.973,17.809c11.477,11.482,17.802,26.753,17.802,42.991c0,16.242-6.325,31.511-17.802,42.994
	l-34.985,35.031l43.968,44.027c3.639,3.641,8.575,5.69,13.725,5.69c5.149,0,10.084-2.049,13.725-5.69l133.909-134.086
	c18.928-18.94,29.358-44.123,29.358-70.908C456.51,193.777,446.08,168.593,427.152,149.653z"/>
<path style="fill:#E84731;" d="M167.299,431.247c-3.121,0-6.116-1.242-8.322-3.451l-81.191-81.3
	c-11.477-11.482-17.801-26.751-17.801-42.993c0-16.238,6.324-31.508,17.801-42.991c11.477-11.485,26.741-17.809,42.972-17.809
	c16.234,0,31.495,6.324,42.974,17.809l3.566,3.567l3.565-3.567c11.479-11.485,26.74-17.809,42.974-17.809
	c16.233,0,31.496,6.324,42.973,17.809c11.477,11.482,17.802,26.753,17.802,42.991c0,16.242-6.325,31.511-17.802,42.994
	l-81.192,81.299C173.413,430.003,170.422,431.247,167.299,431.247z"/>
<g style="opacity:0.1;">
	<path d="M120.758,242.703c9.873,0,19.38,2.352,27.901,6.769c-8.887-15.177-13.631-32.501-13.631-50.557
		c0-26.784,10.427-51.967,29.359-70.906c0.083-0.083,0.168-0.163,0.252-0.246c-12.105,4.977-23.222,12.354-32.753,21.891
		c-18.932,18.94-29.359,44.123-29.359,70.906c0,8.227,0.987,16.302,2.9,24.094C110.375,243.374,115.515,242.703,120.758,242.703z"/>
	<path d="M298.295,403.909l-49.409-49.477l-27.061,27.095l43.968,44.027c3.639,3.641,8.575,5.69,13.725,5.69
		c5.149,0,10.084-2.049,13.725-5.69l16.136-16.158C305.208,408.824,301.306,406.922,298.295,403.909z"/>
</g>
<path style="opacity:0.1;enable-background:new    ;" d="M191.478,406.15l-81.191-81.3c-11.477-11.482-17.801-26.752-17.801-42.993
	c0-13.611,4.459-26.534,12.656-37.124c-10.254,2.709-19.658,8.076-27.356,15.78c-11.477,11.482-17.801,26.753-17.801,42.991
	c0,16.242,6.324,31.511,17.801,42.993l81.191,81.3c2.206,2.208,5.2,3.451,8.322,3.451c3.122,0,6.115-1.242,8.32-3.451l19.263-19.288
	C193.63,407.93,192.471,407.143,191.478,406.15z"/>
<path style="fill:#FFC529;" d="M425.191,192.746c-12.76,8.222-19.427,14.888-27.649,27.649
	c-8.222-12.761-14.889-19.427-27.649-27.649c12.76-8.222,19.427-14.888,27.649-27.649
	C405.764,177.858,412.431,184.523,425.191,192.746z"/>
<rect x="363.88" y="245.843" transform="matrix(-0.7071 -0.7071 0.7071 -0.7071 460.6448 709.0905)" style="fill:#FFED84;" width="26.599" height="26.598"/>
<path d="M356.278,112.445c-28.867,0-56.008,11.247-76.422,31.67l-0.339,0.339l-0.339-0.339c-20.411-20.422-47.551-31.67-76.42-31.67
	c-28.867,0-56.005,11.247-76.415,31.669c-20.411,20.42-31.653,47.569-31.653,76.447c0,6.367,0.559,12.645,1.63,18.788
	c-8.928,3.4-17.122,8.663-24.077,15.623c-12.958,12.964-20.094,30.198-20.094,48.53c0,18.334,7.137,35.569,20.092,48.531
	l81.192,81.301c3.704,3.707,8.628,5.749,13.866,5.749c5.237,0,10.161-2.042,13.866-5.75l40.662-40.715l38.426,38.477
	c5.148,5.151,11.991,7.988,19.267,7.988s14.12-2.837,19.269-7.989l92.109-92.232c3.058-3.063,3.055-8.025-0.007-11.082
	c-3.062-3.06-8.024-3.055-11.082,0.007l-92.107,92.23c-2.188,2.189-5.093,3.394-8.181,3.394s-5.993-1.205-8.179-3.392l-38.437-38.49
	l29.453-29.492c12.959-12.965,20.095-30.201,20.095-48.534c0-11.794-3.023-23.403-8.74-33.577
	c-2.121-3.773-6.898-5.114-10.671-2.992c-3.773,2.121-5.113,6.899-2.992,10.671c4.403,7.832,6.73,16.787,6.73,25.897
	c0,14.147-5.508,27.449-15.51,37.457l-81.191,81.298c-0.743,0.744-1.728,1.152-2.776,1.152c-1.032,0-2.045-0.42-2.776-1.152
	l-81.193-81.302c-10-10.005-15.507-23.306-15.507-37.454c0-14.146,5.508-27.446,15.507-37.451
	c9.995-10.003,23.288-15.512,37.429-15.512c14.139,0,27.434,5.509,37.432,15.513l3.566,3.567c1.469,1.47,3.463,2.296,5.543,2.296
	c2.078,0,4.072-0.827,5.542-2.297l3.565-3.567c9.997-10.003,23.292-15.512,37.431-15.512c9.812,0,19.36,2.679,27.615,7.749
	c3.683,2.263,8.512,1.112,10.778-2.577c2.265-3.687,1.112-8.515-2.577-10.779c-10.724-6.586-23.108-10.068-35.817-10.068
	c-17.411,0-33.831,6.444-46.539,18.203c-12.709-11.759-29.129-18.203-46.54-18.203c-3.103,0-6.169,0.222-9.194,0.625
	c-0.79-4.891-1.2-9.879-1.2-14.93c0-24.693,9.612-47.907,27.065-65.367c17.45-17.46,40.65-27.075,65.329-27.075
	c24.68,0,47.883,9.615,65.335,27.076l5.883,5.884c1.469,1.47,3.464,2.296,5.543,2.296c2.078,0,4.073-0.827,5.542-2.297l5.881-5.883
	c17.453-17.461,40.657-27.076,65.336-27.076c24.677,0,47.879,9.615,65.331,27.075c17.453,17.463,27.064,40.678,27.064,65.367
	c0,24.691-9.611,47.906-27.066,65.37l-16.755,16.778c-3.058,3.063-3.055,8.025,0.007,11.082c3.063,3.06,8.025,3.055,11.082-0.007
	l16.753-16.776c20.411-20.423,31.652-47.573,31.652-76.448c0-28.874-11.241-56.023-31.652-76.446
	C412.281,123.692,385.143,112.445,356.278,112.445z"/>
<path d="M455.517,125.498c-8.062-8.068-17.072-15.068-26.781-20.811c-3.723-2.202-8.529-0.972-10.734,2.755
	c-2.204,3.725-0.971,8.532,2.755,10.734c8.576,5.073,16.542,11.264,23.674,18.401c8.34,8.343,15.35,17.776,20.841,28.034
	c1.413,2.638,4.118,4.141,6.916,4.141c1.247,0,2.513-0.299,3.691-0.93c3.815-2.042,5.254-6.791,3.211-10.607
	C472.877,145.601,464.944,134.929,455.517,125.498z"/>
<path d="M511.306,154.531c-7.981-17.718-19.072-33.751-32.966-47.65c-14.073-14.08-30.323-25.277-48.3-33.284
	c-3.952-1.761-8.586,0.017-10.346,3.972c-1.761,3.953,0.018,8.586,3.972,10.346c16.216,7.221,30.881,17.329,43.59,30.046
	c12.55,12.553,22.562,27.023,29.762,43.006c1.306,2.902,4.161,4.62,7.149,4.62c1.076,0,2.169-0.223,3.214-0.694
	C511.325,163.118,513.084,158.477,511.306,154.531z"/>
<path d="M60.504,236.353c-3.062-3.06-8.024-3.059-11.082,0.003c-8.679,8.683-15.492,18.765-20.25,29.965
	c-1.692,3.984,0.165,8.585,4.149,10.278c1,0.424,2.039,0.626,3.062,0.626c3.049,0,5.949-1.791,7.216-4.774
	c3.968-9.342,9.657-17.759,16.909-25.014C63.566,244.375,63.565,239.414,60.504,236.353z"/>
<path d="M49.336,218.824c3.438-2.629,4.093-7.547,1.463-10.986c-2.628-3.436-7.546-4.094-10.986-1.463
	c-4.294,3.284-8.425,6.904-12.273,10.756c-11.807,11.81-20.885,25.582-26.984,40.937c-1.597,4.023,0.368,8.579,4.391,10.176
	c0.949,0.376,1.928,0.555,2.891,0.555c3.117,0,6.065-1.872,7.286-4.945c5.306-13.358,13.213-25.35,23.503-35.642
	C41.987,224.846,45.59,221.688,49.336,218.824z"/>
<path d="M390.954,224.639c1.443,2.239,3.925,3.592,6.588,3.592c2.663,0,5.145-1.353,6.588-3.592
	c7.6-11.793,13.511-17.706,25.306-25.306c2.239-1.443,3.592-3.925,3.592-6.588s-1.353-5.145-3.592-6.588
	c-11.795-7.599-17.707-13.514-25.306-25.306c-1.443-2.239-3.925-3.592-6.588-3.592s-5.145,1.353-6.588,3.592
	c-7.599,11.793-13.511,17.706-25.306,25.306c-2.239,1.443-3.592,3.925-3.592,6.588s1.353,5.145,3.592,6.588
	C377.444,206.933,383.356,212.846,390.954,224.639z M397.542,178.689c4.245,5.416,8.642,9.813,14.057,14.057
	c-5.416,4.245-9.813,8.642-14.057,14.057c-4.245-5.416-8.641-9.813-14.057-14.057C388.901,188.5,393.297,184.103,397.542,178.689z"
	/>
<path d="M350.563,259.137c0,2.078,0.825,4.072,2.296,5.542l18.81,18.808c1.53,1.53,3.536,2.295,5.541,2.295
	c2.005,0,4.011-0.765,5.542-2.296l18.807-18.808c3.06-3.06,3.06-8.023-0.001-11.082l-18.809-18.808
	c-3.059-3.059-8.022-3.059-11.082,0l-18.808,18.808C351.388,255.065,350.563,257.058,350.563,259.137z M377.207,251.411l7.727,7.726
	l-7.724,7.726l-7.728-7.726L377.207,251.411z"/>
</svg>